<svg width="35" height="35" viewBox="0 0 35 35" fill="none" xmlns="http://www.w3.org/2000/svg">
    <path d="M1.94699 1.2052H4.75659C6.50048 1.2052 7.87297 2.70688 7.72765 4.43462L6.38744 20.5171C6.16138 23.1491 8.24434 25.4097 10.8925 25.4097H28.0891C30.4143 25.4097 32.4488 23.5043 32.6264 21.1953L33.4984 9.08498C33.6921 6.40457 31.6576 4.2247 28.961 4.2247H8.11519" stroke="#292929" stroke-width="2.42206" stroke-miterlimit="10" stroke-linecap="round" stroke-linejoin="round"/>
    <path d="M24.9566 33.4994C26.0713 33.4994 26.975 32.5958 26.975 31.481C26.975 30.3663 26.0713 29.4626 24.9566 29.4626C23.8418 29.4626 22.9382 30.3663 22.9382 31.481C22.9382 32.5958 23.8418 33.4994 24.9566 33.4994Z" stroke="#292929" stroke-width="2.42206" stroke-miterlimit="10" stroke-linecap="round" stroke-linejoin="round"/>
    <path d="M12.0389 33.4994C13.1536 33.4994 14.0573 32.5958 14.0573 31.481C14.0573 30.3663 13.1536 29.4626 12.0389 29.4626C10.9242 29.4626 10.0205 30.3663 10.0205 31.481C10.0205 32.5958 10.9242 33.4994 12.0389 33.4994Z" stroke="#292929" stroke-width="2.42206" stroke-miterlimit="10" stroke-linecap="round" stroke-linejoin="round"/>
    <path d="M13.2499 10.8934H32.6264" stroke="#292929" stroke-width="2.42206" stroke-miterlimit="10" stroke-linecap="round" stroke-linejoin="round"/>
</svg>
