<svg width="58" height="62" viewBox="0 0 58 62" fill="none" xmlns="http://www.w3.org/2000/svg">
    <path d="M26.0203 2.60468C26.9096 2.11079 27.9101 1.85162 28.9274 1.85162C29.9447 1.85162 30.9452 2.11079 31.8345 2.60468L54.334 15.1014C54.8005 15.3608 55.1891 15.7402 55.4597 16.2003C55.7303 16.6603 55.8729 17.1844 55.8729 17.7181V42.3733C55.8727 43.4411 55.5869 44.4894 55.0452 45.4095C54.5035 46.3297 53.7256 47.0883 52.7921 47.6067L31.8345 59.2532C30.9452 59.7471 29.9447 60.0062 28.9274 60.0062C27.9101 60.0062 26.9096 59.7471 26.0203 59.2532L5.06263 47.6067C4.12958 47.0885 3.35198 46.3304 2.81033 45.4108C2.26867 44.4912 1.98264 43.4436 1.98186 42.3763V17.7181C1.98184 17.1844 2.1245 16.6603 2.39507 16.2003C2.66564 15.7402 3.05428 15.3608 3.52075 15.1014L26.0233 2.60468H26.0203Z" stroke="#DCB47A" stroke-width="3.42165" stroke-linecap="round" stroke-linejoin="round"/>
    <path d="M15.4546 8.47278L42.4001 23.4425V33.9213M10.9637 31.9094L19.9455 36.9153" stroke="#DCB47A" stroke-width="3.42165" stroke-linecap="round" stroke-linejoin="round"/>
    <path d="M1.98184 15.9577L28.9274 30.9274M28.9274 30.9274L55.8729 15.9577M28.9274 30.9274V60.8669" stroke="#DCB47A" stroke-width="3.42165" stroke-linejoin="round"/>
</svg>
