<svg width="67" height="67" viewBox="0 0 67 67" fill="none" xmlns="http://www.w3.org/2000/svg">
    <path d="M57.3088 21.8069H60.4883C62.0764 21.8069 63.5995 22.4378 64.7224 23.5608C65.8454 24.6837 66.4762 26.2068 66.4762 27.7948V39.7706C66.4762 41.3587 65.8454 42.8818 64.7224 44.0047C63.5995 45.1277 62.0764 45.7585 60.4883 45.7585H57.3088C56.5789 51.5467 53.7617 56.8696 49.386 60.7283C45.0103 64.5869 39.3768 66.7161 33.5428 66.7162V60.7283C38.3071 60.7283 42.8762 58.8357 46.245 55.4668C49.6139 52.098 51.5065 47.5288 51.5065 42.7646V24.8009C51.5065 20.0366 49.6139 15.4675 46.245 12.0987C42.8762 8.72981 38.3071 6.83721 33.5428 6.83721C28.7785 6.83721 24.2094 8.72981 20.8406 12.0987C17.4717 15.4675 15.5791 20.0366 15.5791 24.8009V45.7585H6.59727C5.00918 45.7585 3.48614 45.1277 2.36319 44.0047C1.24024 42.8818 0.609375 41.3587 0.609375 39.7706V27.7948C0.609375 26.2068 1.24024 24.6837 2.36319 23.5608C3.48614 22.4378 5.00918 21.8069 6.59727 21.8069H9.77684C10.5075 16.0193 13.3249 10.6972 17.7005 6.83923C22.0762 2.98124 27.7092 0.852539 33.5428 0.852539C39.3763 0.852539 45.0094 2.98124 49.385 6.83923C53.7607 10.6972 56.5781 16.0193 57.3088 21.8069ZM6.59727 27.7948V39.7706H9.59122V27.7948H6.59727ZM57.4944 27.7948V39.7706H60.4883V27.7948H57.4944ZM20.8485 45.1148L24.022 40.0371C26.8755 41.8246 30.1757 42.77 33.5428 42.7646C36.9099 42.77 40.2101 41.8246 43.0636 40.0371L46.2371 45.1148C42.4326 47.4984 38.0323 48.7594 33.5428 48.7525C29.0532 48.7594 24.653 47.4984 20.8485 45.1148Z" fill="#DCB47A"/>
</svg>
