<svg width="39" height="37" viewBox="0 0 39 37" fill="none" xmlns="http://www.w3.org/2000/svg">
    <g clip-path="url(#clip0_0_1)">
        <path d="M8 8C8 3.58143 11.5786 0 16 0C20.4214 0 24 3.58143 24 8V11.4286H28.5714C30.4643 11.4286 32 12.9643 32 14.8571V29.7143C32 33.5 28.9286 36.5714 25.1429 36.5714H6.85714C3.07 36.5714 0 33.5 0 29.7143V14.8571C0 12.9643 1.535 11.4286 3.42857 11.4286H8V8ZM11.4286 11.4286H20.5714V8C20.5714 5.475 18.5214 3.42857 16 3.42857C13.4786 3.42857 11.4286 5.475 11.4286 8V11.4286ZM9.71429 18.2857C10.6643 18.2857 11.4286 17.5214 11.4286 16.5714C11.4286 15.6214 10.6643 14.8571 9.71429 14.8571C8.76429 14.8571 8 15.6214 8 16.5714C8 17.5214 8.76429 18.2857 9.71429 18.2857ZM22.2857 14.8571C21.3357 14.8571 20.5714 15.6214 20.5714 16.5714C20.5714 17.5214 21.3357 18.2857 22.2857 18.2857C23.2357 18.2857 24 17.5214 24 16.5714C24 15.6214 23.2357 14.8571 22.2857 14.8571Z" fill="white"/>
    </g>
    <circle cx="28.5" cy="13.5" r="10.5" fill="white"/>
    <path d="M28.1594 18V12.68C28.1594 12.4373 28.1594 12.19 28.1594 11.938C28.1687 11.6767 28.1734 11.4107 28.1734 11.14C27.8654 11.42 27.5247 11.6673 27.1514 11.882C26.778 12.0873 26.386 12.2273 25.9754 12.302L25.7514 10.314C25.994 10.2953 26.2507 10.2347 26.5214 10.132C26.8014 10.0293 27.0767 9.90333 27.3474 9.754C27.618 9.60467 27.8607 9.446 28.0754 9.278C28.29 9.10067 28.4534 8.928 28.5654 8.76H30.4834V18H28.1594Z" fill="#2D3949"/>
    <defs>
        <clipPath id="clip0_0_1">
            <rect width="32" height="36.5714" fill="white"/>
        </clipPath>
    </defs>
</svg>

