<svg width="27" height="23" viewBox="0 0 27 23" fill="none" xmlns="http://www.w3.org/2000/svg">
    <path fill-rule="evenodd" clip-rule="evenodd" d="M0.0838089 11.5777C0.0838089 11.1479 0.254562 10.7357 0.558505 10.4317C0.862447 10.1278 1.27468 9.95704 1.70452 9.95704H20.4821L13.5228 3.00094C13.2184 2.69661 13.0475 2.28386 13.0475 1.85347C13.0475 1.42309 13.2184 1.01034 13.5228 0.706009C13.8271 0.401682 14.2398 0.230713 14.6702 0.230713C15.1006 0.230713 15.5134 0.401682 15.8177 0.706009L25.542 10.4303C25.6929 10.5808 25.8126 10.7597 25.8943 10.9566C25.976 11.1535 26.0181 11.3646 26.0181 11.5777C26.0181 11.7909 25.976 12.002 25.8943 12.1989C25.8126 12.3958 25.6929 12.5747 25.542 12.7252L15.8177 22.4495C15.5134 22.7538 15.1006 22.9248 14.6702 22.9248C14.2398 22.9248 13.8271 22.7538 13.5228 22.4495C13.2184 22.1452 13.0475 21.7324 13.0475 21.302C13.0475 20.8716 13.2184 20.4589 13.5228 20.1546L20.4821 13.1985H1.70452C1.27468 13.1985 0.862447 13.0277 0.558505 12.7238C0.254562 12.4198 0.0838089 12.0076 0.0838089 11.5777Z" fill="#4F4F4F"/>
</svg>
