<svg width="50" height="50" viewBox="0 0 50 50" fill="none" xmlns="http://www.w3.org/2000/svg">
    <circle cx="25" cy="25" r="25" fill="#525A55"/>
    <path d="M34.7953 33.9181L30.0584 29.1813L34.7953 33.9181ZM30.0584 29.1813C30.8187 28.421 31.4218 27.5184 31.8333 26.525C32.2447 25.5317 32.4565 24.467 32.4565 23.3918C32.4565 22.3166 32.2447 21.2519 31.8333 20.2586C31.4218 19.2652 30.8187 18.3626 30.0584 17.6023C29.2982 16.8421 28.3956 16.239 27.4022 15.8275C26.4089 15.416 25.3442 15.2043 24.269 15.2043C23.1938 15.2043 22.1291 15.416 21.1357 15.8275C20.1424 16.239 19.2398 16.8421 18.4795 17.6023C16.944 19.1378 16.0814 21.2203 16.0814 23.3918C16.0814 25.5633 16.944 27.6458 18.4795 29.1813C20.015 30.7167 22.0975 31.5794 24.269 31.5794C26.4404 31.5794 28.523 30.7167 30.0584 29.1813V29.1813Z" stroke="white" stroke-width="3" stroke-linecap="round" stroke-linejoin="round"/>
</svg>
