<svg width="55" height="59" viewBox="0 0 55 59" fill="none" xmlns="http://www.w3.org/2000/svg">
    <path d="M27.5285 2.16154C27.8993 1.6976 28.3584 1.3118 28.8792 1.02649C29.4001 0.741179 29.9724 0.562012 30.563 0.499362C31.1536 0.436712 31.7507 0.491824 32.3198 0.661506C32.889 0.831189 33.4188 1.11207 33.8787 1.4879L48.528 13.4517C49.3337 14.1095 49.886 15.0265 50.0908 16.0462C50.2955 17.0659 50.14 18.1251 49.6508 19.0429C48.37 18.6515 47.038 18.4532 45.6988 18.4546H44.3515L45.6898 16.9277L37.9744 10.6269L31.6107 18.4591H25.8219L34.4939 7.78866L31.0359 4.96387L20.2667 18.4546H14.5183L27.5285 2.16154ZM38.9624 40.9092C38.3669 40.9092 37.7957 41.1458 37.3746 41.5669C36.9535 41.988 36.7169 42.5591 36.7169 43.1547C36.7169 43.7502 36.9535 44.3213 37.3746 44.7424C37.7957 45.1635 38.3669 45.4001 38.9624 45.4001H43.4533C44.0488 45.4001 44.62 45.1635 45.0411 44.7424C45.4622 44.3213 45.6988 43.7502 45.6988 43.1547C45.6988 42.5591 45.4622 41.988 45.0411 41.5669C44.62 41.1458 44.0488 40.9092 43.4533 40.9092H38.9624ZM5.28047 20.7001C5.28047 20.1045 5.51705 19.5334 5.93815 19.1123C6.35926 18.6912 6.9304 18.4546 7.52593 18.4546H10.0319L13.6022 13.9637H7.52593C5.73933 13.9637 4.02591 14.6734 2.76259 15.9367C1.49927 17.2 0.789551 18.9135 0.789551 20.7001V47.6456C0.789551 50.6232 1.97242 53.479 4.07795 55.5845C6.18348 57.69 9.03919 58.8729 12.0169 58.8729H45.6988C48.0809 58.8729 50.3655 57.9266 52.0499 56.2422C53.7343 54.5577 54.6806 52.2732 54.6806 49.891V31.9274C54.6806 29.5452 53.7343 27.2607 52.0499 25.5762C50.3655 23.8918 48.0809 22.9455 45.6988 22.9455H7.52593C6.9304 22.9455 6.35926 22.7089 5.93815 22.2878C5.51705 21.8667 5.28047 21.2956 5.28047 20.7001ZM5.28047 47.6456V27.0547C5.98106 27.3017 6.74002 27.4364 7.52593 27.4364H45.6988C46.8898 27.4364 48.0321 27.9096 48.8743 28.7518C49.7165 29.594 50.1897 30.7363 50.1897 31.9274V49.891C50.1897 51.0821 49.7165 52.2244 48.8743 53.0666C48.0321 53.9088 46.8898 54.382 45.6988 54.382H12.0169C10.2303 54.382 8.51683 53.6722 7.25351 52.4089C5.9902 51.1456 5.28047 49.4322 5.28047 47.6456Z" fill="#DCB47A"/>
</svg>
